<svg width="62" height="62" viewBox="0 0 62 62" fill="none" xmlns="http://www.w3.org/2000/svg">
<circle cx="31" cy="31" r="29" stroke="black" stroke-width="4"/>
<path d="M17.5234 24.7231C15.9523 24.6048 14.748 23.2219 15.1613 21.7014C15.703 19.7083 16.6533 17.8384 17.9632 16.2151C19.8738 13.8476 22.4592 12.117 25.3762 11.253C28.2932 10.389 31.404 10.4324 34.2958 11.3774C37.1876 12.3225 39.7236 14.1245 41.5675 16.5444C43.4113 18.9643 44.4757 21.8876 44.6195 24.9265C44.7632 27.9654 43.9796 30.9762 42.3724 33.5593C40.7653 36.1425 38.4107 38.1759 35.621 39.3897C33.7084 40.2219 31.6533 40.6419 29.5879 40.6353C28.0123 40.6302 26.9985 39.1022 27.3014 37.556V37.556C27.6042 36.0098 29.1238 35.0483 30.6892 34.8698C31.5996 34.766 32.4947 34.5275 33.3445 34.1578C35.073 33.4057 36.532 32.1457 37.5278 30.5452C38.5236 28.9446 39.0092 27.0791 38.9201 25.1962C38.831 23.3132 38.1715 21.5019 37.029 20.0025C35.8865 18.5031 34.3152 17.3865 32.5234 16.8009C30.7316 16.2154 28.8041 16.1885 26.9966 16.7238C25.1892 17.2592 23.5873 18.3315 22.4035 19.7985C21.8215 20.5196 21.354 21.3194 21.0124 22.1696C20.4248 23.6316 19.0946 24.8415 17.5234 24.7231V24.7231Z" fill="black"/>
<ellipse cx="30" cy="47.5" rx="3" ry="3.5" fill="black"/>
</svg>
