<svg width="75" height="72" viewBox="0 0 75 72" fill="none" xmlns="http://www.w3.org/2000/svg">
<path d="M36.1118 41.85C36.8129 40.95 37.6602 40.518 38.6535 40.554C39.6469 40.593 40.4941 41.0625 41.1953 41.9625L51.0993 54.675V4.5C51.0993 3.225 51.4359 2.1555 52.109 1.2915C52.7798 0.430501 53.6119 0 54.6052 0C55.5985 0 56.4318 0.430501 57.1049 1.2915C57.7757 2.1555 58.1111 3.225 58.1111 4.5V54.675L68.1028 41.85C68.804 40.95 69.6372 40.5 70.6025 40.5C71.5654 40.5 72.3975 40.95 73.0986 41.85C73.7998 42.75 74.1504 43.8195 74.1504 45.0585C74.1504 46.2945 73.7998 47.3625 73.0986 48.2625L57.0593 68.85C56.7087 69.3 56.3289 69.6195 55.9199 69.8085C55.5109 69.9945 55.0726 70.0875 54.6052 70.0875C54.1378 70.0875 53.6995 69.9945 53.2905 69.8085C52.8815 69.6195 52.5017 69.3 52.1511 68.85L36.0241 48.15C35.3814 47.325 35.06 46.2945 35.06 45.0585C35.06 43.8195 35.4106 42.75 36.1118 41.85Z" fill="black"/>
<path d="M38.0386 30.15C37.3374 31.05 36.4902 31.482 35.4969 31.446C34.5035 31.407 33.6563 30.9375 32.9551 30.0375L23.0511 17.325V67.5C23.0511 68.775 22.7145 69.8445 22.0414 70.7085C21.3706 71.5695 20.5385 72 19.5452 72C18.5519 72 17.7186 71.5695 17.0455 70.7085C16.3747 69.8445 16.0393 68.775 16.0393 67.5V17.325L6.04761 30.15C5.34644 31.05 4.51321 31.5 3.54793 31.5C2.58499 31.5 1.75293 31.05 1.05176 30.15C0.350585 29.25 0 28.1805 0 26.9415C0 25.7055 0.350585 24.6375 1.05176 23.7375L17.0911 3.15C17.4417 2.7 17.8215 2.3805 18.2305 2.1915C18.6395 2.0055 19.0777 1.9125 19.5452 1.9125C20.0126 1.9125 20.4509 2.0055 20.8599 2.1915C21.2689 2.3805 21.6487 2.7 21.9993 3.15L38.1263 23.85C38.769 24.675 39.0904 25.7055 39.0904 26.9415C39.0904 28.1805 38.7398 29.25 38.0386 30.15Z" fill="black"/>
</svg>
